<svg width="320" height="1061" viewBox="0 0 320 1061" fill="none" xmlns="http://www.w3.org/2000/svg">
<path d="M112.585 22.386C112.585 23.101 112.988 23.829 113.599 24.206L116.537 26H120.58V20.514C120.58 19.799 120.177 19.071 119.566 18.694L116.628 16.9H112.585V22.386ZM119.15 20.046V26L114.015 22.854V16.9L119.15 20.046ZM121.709 16.9V22.477C121.709 23.192 122.112 23.92 122.723 24.297L124.998 25.714C125.323 25.922 125.713 26.039 126.103 26.039C126.831 26.039 127.559 25.636 127.871 24.726V26H129.301V16.9H127.871V24.128C127.871 24.778 127.468 25.051 127 25.051C126.74 25.051 126.454 24.96 126.22 24.817L123.737 23.309C123.386 23.088 123.139 22.672 123.139 22.256V16.9H121.709ZM129.916 16.9L132.802 18.655V26H134.232V19.539L135.987 20.605C136.429 20.878 136.494 21.19 136.494 21.671H136.546C136.962 20.618 136.858 19.513 135.792 18.876L132.542 16.9H129.916ZM139.323 26V20.137L143.236 22.516C143.613 22.75 144.003 22.867 144.38 22.867C145.056 22.867 145.667 22.49 146.07 21.801C146.707 20.774 146.447 19.63 145.381 18.993L141.949 16.9H137.893V26H139.323ZM145.641 20.761C145.992 20.969 146.174 21.385 145.979 21.736C145.849 21.957 145.628 22.061 145.381 22.061C145.225 22.061 145.069 22.022 144.926 21.931L141.962 20.124H139.323V16.9L145.641 20.761ZM147.229 16.9V22.477C147.229 23.192 147.632 23.92 148.243 24.297L150.518 25.714C150.843 25.922 151.233 26.039 151.623 26.039C152.351 26.039 153.079 25.636 153.391 24.726V26H154.821V16.9H153.391V24.128C153.391 24.778 152.988 25.051 152.52 25.051C152.26 25.051 151.974 24.96 151.74 24.817L149.257 23.309C148.906 23.088 148.659 22.672 148.659 22.256V16.9H147.229ZM155.435 16.9L158.321 18.655V26H159.751V19.539L161.506 20.605C161.948 20.878 162.013 21.19 162.013 21.671H162.065C162.481 20.618 162.377 19.513 161.311 18.876L158.061 16.9H155.435ZM166.554 26H167.984V16.9H166.554V26ZM174.328 22.399L170.545 20.111H168.036L171.793 22.399H174.328ZM174.653 21.697C175.29 20.67 175.004 19.539 173.938 18.902L170.688 16.926H168.062L174.133 20.631C174.575 20.904 174.679 21.216 174.601 21.697H174.653ZM175.987 26H177.417V16.9H175.987V26ZM178.747 22.451L184.012 25.714C184.376 25.948 184.792 26.065 185.182 26.065C185.884 26.065 186.521 25.662 186.742 24.726H186.677C186.495 25.012 186.261 25.116 186.027 25.116C185.806 25.116 185.585 25.025 185.377 24.895L180.177 21.723V20.111L183.947 22.399H186.482L182.686 20.111H180.177V16.9L186.248 20.605C186.69 20.878 186.755 21.19 186.755 21.671H186.807C187.223 20.618 187.119 19.513 186.053 18.876L182.803 16.9H178.747V22.451ZM189.585 26V23.296L193.511 25.688C193.888 25.922 194.278 26.039 194.655 26.039C195.331 26.039 195.942 25.662 196.345 24.973C196.982 23.946 196.722 22.802 195.656 22.165L192.224 20.072L192.211 21.671L195.916 23.933C196.267 24.141 196.449 24.557 196.254 24.908C196.124 25.129 195.903 25.233 195.656 25.233C195.5 25.233 195.344 25.194 195.201 25.103L192.237 23.296H189.585V16.9H188.155V26H189.585ZM197.559 16.9V26H198.989V23.595L202.395 25.714C202.759 25.948 203.175 26.065 203.552 26.065C204.007 26.065 204.423 25.896 204.735 25.545L205.554 24.596V20.514C205.554 19.799 205.151 19.071 204.54 18.694L201.602 16.9H197.559ZM203.539 19.682C203.89 19.903 204.124 20.319 204.124 20.735V25.129L201.615 23.595H198.989V16.9L203.539 19.682Z" fill="black"/>
<g filter="url(#filter0_d)">
<path d="M111.383 69.2H99.1747V70.544C104.383 70.544 104.551 71.496 103.711 74.8L96.4867 103.528H96.3187L88.8147 74.8C87.9747 71.496 88.1427 70.544 93.3507 70.544V69.2H76.4947V70.544C79.9107 70.544 80.9747 71.272 81.9267 74.8L83.9987 82.584L77.2227 104.48H77.0547L69.1587 74.8C68.2627 71.496 68.4307 70.544 73.6387 70.544V69.2H56.7827V70.544C60.1987 70.544 61.3187 71.272 62.2707 74.8L73.2467 115.288H75.9347L85.0627 86.448L92.7907 115.288H95.5907L106.007 74.8C106.903 71.272 108.023 70.544 111.383 70.544V69.2ZM125.184 102.24C123.616 108.848 121.04 110.976 118.352 110.976C113.928 110.976 111.632 105.488 111.632 97.872V97.648H126.472C126.472 89.472 123.336 83.312 116.952 83.312C110.12 83.312 106.2 90.816 106.2 99.44C106.2 109.016 110.064 115.12 116.448 115.12C121.656 115.12 125.352 110.864 126.528 102.24H125.184ZM116.728 85.664C120.088 85.664 121.096 89.976 121.096 95.352H111.688C111.968 89.696 113.424 85.664 116.728 85.664ZM138.176 108.232V68.864L137.392 68.08L133.416 70.04L129.216 72.168L129.832 73.344C132.968 71.776 132.912 72.448 132.912 76.088V108.232C132.912 111.816 132.352 112.656 128.936 112.656V114H142.096V112.656C138.68 112.656 138.176 111.816 138.176 108.232ZM158.817 90.592C158.985 92.664 160.161 93.672 162.065 93.672C163.969 93.672 164.921 92.552 164.921 90.648C164.921 86.952 161.281 83.312 156.297 83.312C149.353 83.312 144.481 89.64 144.481 99.776C144.481 109.016 148.513 115.12 155.457 115.12C161.169 115.12 164.641 110.864 165.817 102.352H164.473C162.793 109.296 160.665 111.592 157.753 111.592C153.273 111.592 150.529 106.552 150.529 98.376C150.529 90.76 152.209 85.664 155.961 85.664C157.977 85.664 158.593 87.568 158.817 90.592ZM181.582 115.12C189.366 115.12 194.182 108.288 194.182 99.216C194.182 90.2 189.366 83.312 181.582 83.312C173.742 83.312 168.926 90.2 168.926 99.216C168.926 108.288 173.742 115.12 181.582 115.12ZM182.758 112.768C178.446 113.104 175.814 108.736 174.974 99.832C174.246 90.872 176.094 86.112 180.35 85.72C184.662 85.328 187.35 89.696 188.134 98.656C188.862 107.616 187.014 112.376 182.758 112.768ZM234.895 108.232V91.376C234.895 86.224 233.271 83.312 229.127 83.312C225.431 83.312 222.519 86 220.223 89.08H220.055C219.551 85.384 217.703 83.312 214.231 83.312C210.535 83.312 207.847 86 205.719 89.08H205.551V84.096L204.767 83.312L200.791 85.328L196.591 87.4L197.207 88.576C200.343 87.008 200.287 87.736 200.287 91.376V108.232C200.287 111.816 199.727 112.656 196.311 112.656V114H209.023V112.656C205.999 112.656 205.551 111.816 205.551 108.232V91.432C207.567 88.8 209.863 86.84 212.159 86.84C214.175 86.84 215.015 88.24 215.015 91.208V108.232C215.015 111.816 214.511 112.656 211.487 112.656V114H223.751V112.656C220.727 112.656 220.223 111.816 220.223 108.232V91.432C222.295 88.8 224.535 86.84 226.831 86.84C228.847 86.84 229.687 88.24 229.687 91.208V108.232C229.687 111.816 229.183 112.656 226.159 112.656V114H238.871V112.656C235.455 112.656 234.895 111.816 234.895 108.232ZM259.387 102.24C257.819 108.848 255.243 110.976 252.555 110.976C248.131 110.976 245.835 105.488 245.835 97.872V97.648H260.675C260.675 89.472 257.539 83.312 251.155 83.312C244.323 83.312 240.403 90.816 240.403 99.44C240.403 109.016 244.267 115.12 250.651 115.12C255.859 115.12 259.555 110.864 260.731 102.24H259.387ZM250.931 85.664C254.291 85.664 255.299 89.976 255.299 95.352H245.891C246.171 89.696 247.627 85.664 250.931 85.664Z" fill="black"/>
</g>
<g filter="url(#filter1_d)">
<ellipse cx="160" cy="317.5" rx="156" ry="119.5" fill="#ECECEC"/>
<path d="M315.5 317.5C315.5 350.311 298.14 380.05 270.005 401.602C241.869 423.155 202.978 436.5 160 436.5C117.022 436.5 78.1312 423.155 49.9954 401.602C21.8601 380.05 4.5 350.311 4.5 317.5C4.5 284.689 21.8601 254.95 49.9954 233.398C78.1312 211.845 117.022 198.5 160 198.5C202.978 198.5 241.869 211.845 270.005 233.398C298.14 254.95 315.5 284.689 315.5 317.5Z" stroke="#0404FF"/>
</g>
<g filter="url(#filter2_d)">
<ellipse cx="160" cy="532" rx="156" ry="91" fill="#ECECEC"/>
<path d="M315.5 532C315.5 556.877 298.21 579.492 270.057 595.915C241.915 612.331 203.006 622.5 160 622.5C116.994 622.5 78.0846 612.331 49.9433 595.915C21.7897 579.492 4.5 556.877 4.5 532C4.5 507.123 21.7897 484.508 49.9433 468.085C78.0846 451.669 116.994 441.5 160 441.5C203.006 441.5 241.915 451.669 270.057 468.085C298.21 484.508 315.5 507.123 315.5 532Z" stroke="#0404FF"/>
</g>
<g filter="url(#filter3_d)">
<ellipse cx="160" cy="809" rx="156" ry="36" fill="#ECECEC"/>
<path d="M315.5 809C315.5 811.329 314.48 813.642 312.457 815.924C310.431 818.208 307.42 820.436 303.501 822.574C295.665 826.849 284.292 830.716 270.196 833.969C242.012 840.473 203.052 844.5 160 844.5C116.948 844.5 77.9876 840.473 49.8038 833.969C35.7079 830.716 24.3352 826.849 16.4987 822.574C12.5802 820.436 9.56938 818.208 7.54347 815.924C5.52032 813.642 4.5 811.329 4.5 809C4.5 806.671 5.52032 804.358 7.54347 802.076C9.56938 799.792 12.5802 797.564 16.4987 795.426C24.3352 791.151 35.7079 787.284 49.8038 784.031C77.9876 777.527 116.948 773.5 160 773.5C203.052 773.5 242.012 777.527 270.196 784.031C284.292 787.284 295.665 791.151 303.501 795.426C307.42 797.564 310.431 799.792 312.457 802.076C314.48 804.358 315.5 806.671 315.5 809Z" stroke="#0404FF"/>
</g>
<g filter="url(#filter4_d)">
<ellipse cx="160" cy="885" rx="156" ry="36" fill="#ECECEC"/>
<path d="M315.5 885C315.5 887.329 314.48 889.642 312.457 891.924C310.431 894.208 307.42 896.436 303.501 898.574C295.665 902.849 284.292 906.716 270.196 909.969C242.012 916.473 203.052 920.5 160 920.5C116.948 920.5 77.9876 916.473 49.8038 909.969C35.7079 906.716 24.3352 902.849 16.4987 898.574C12.5802 896.436 9.56938 894.208 7.54347 891.924C5.52032 889.642 4.5 887.329 4.5 885C4.5 882.671 5.52032 880.358 7.54347 878.076C9.56938 875.792 12.5802 873.564 16.4987 871.426C24.3352 867.151 35.7079 863.284 49.8038 860.031C77.9876 853.527 116.948 849.5 160 849.5C203.052 849.5 242.012 853.527 270.196 860.031C284.292 863.284 295.665 867.151 303.501 871.426C307.42 873.564 310.431 875.792 312.457 878.076C314.48 880.358 315.5 882.671 315.5 885Z" stroke="#0404FF"/>
</g>
<g filter="url(#filter5_d)">
<ellipse cx="160" cy="961" rx="156" ry="36" fill="#ECECEC"/>
<path d="M315.5 961C315.5 963.329 314.48 965.642 312.457 967.924C310.431 970.208 307.42 972.436 303.501 974.574C295.665 978.849 284.292 982.716 270.196 985.969C242.012 992.473 203.052 996.5 160 996.5C116.948 996.5 77.9876 992.473 49.8038 985.969C35.7079 982.716 24.3352 978.849 16.4987 974.574C12.5802 972.436 9.56938 970.208 7.54347 967.924C5.52032 965.642 4.5 963.329 4.5 961C4.5 958.671 5.52032 956.358 7.54347 954.076C9.56938 951.792 12.5802 949.564 16.4987 947.426C24.3352 943.151 35.7079 939.284 49.8038 936.031C77.9876 929.527 116.948 925.5 160 925.5C203.052 925.5 242.012 929.527 270.196 936.031C284.292 939.284 295.665 943.151 303.501 947.426C307.42 949.564 310.431 951.792 312.457 954.076C314.48 956.358 315.5 958.671 315.5 961Z" stroke="#0404FF"/>
</g>
<g filter="url(#filter6_d)">
<ellipse cx="160" cy="698" rx="156" ry="71" fill="#ECECEC"/>
<path d="M315.5 698C315.5 717.29 298.298 734.916 270.102 747.749C241.95 760.562 203.024 768.5 160 768.5C116.976 768.5 78.0501 760.562 49.8985 747.749C21.7019 734.916 4.5 717.29 4.5 698C4.5 678.71 21.7019 661.084 49.8985 648.251C78.0501 635.438 116.976 627.5 160 627.5C203.024 627.5 241.95 635.438 270.102 648.251C298.298 661.084 315.5 678.71 315.5 698Z" stroke="#0404FF"/>
</g>
<rect y="1029" width="320" height="32" fill="#0404FF"/>
<defs>
<filter id="filter0_d" x="49.7827" y="61.0801" width="217.948" height="61.208" filterUnits="userSpaceOnUse" color-interpolation-filters="sRGB">
<feFlood flood-opacity="0" result="BackgroundImageFix"/>
<feColorMatrix in="SourceAlpha" type="matrix" values="0 0 0 0 0 0 0 0 0 0 0 0 0 0 0 0 0 0 127 0"/>
<feOffset/>
<feGaussianBlur stdDeviation="3.5"/>
<feColorMatrix type="matrix" values="0 0 0 0 0.0166667 0 0 0 0 0.0166667 0 0 0 0 1 0 0 0 1 0"/>
<feBlend mode="normal" in2="BackgroundImageFix" result="effect1_dropShadow"/>
<feBlend mode="normal" in="SourceGraphic" in2="effect1_dropShadow" result="shape"/>
</filter>
<filter id="filter1_d" x="-6" y="188" width="332" height="259" filterUnits="userSpaceOnUse" color-interpolation-filters="sRGB">
<feFlood flood-opacity="0" result="BackgroundImageFix"/>
<feColorMatrix in="SourceAlpha" type="matrix" values="0 0 0 0 0 0 0 0 0 0 0 0 0 0 0 0 0 0 127 0"/>
<feOffset/>
<feGaussianBlur stdDeviation="5"/>
<feColorMatrix type="matrix" values="0 0 0 0 0.0166667 0 0 0 0 0.0166667 0 0 0 0 1 0 0 0 1 0"/>
<feBlend mode="normal" in2="BackgroundImageFix" result="effect1_dropShadow"/>
<feBlend mode="normal" in="SourceGraphic" in2="effect1_dropShadow" result="shape"/>
</filter>
<filter id="filter2_d" x="-6" y="431" width="332" height="202" filterUnits="userSpaceOnUse" color-interpolation-filters="sRGB">
<feFlood flood-opacity="0" result="BackgroundImageFix"/>
<feColorMatrix in="SourceAlpha" type="matrix" values="0 0 0 0 0 0 0 0 0 0 0 0 0 0 0 0 0 0 127 0"/>
<feOffset/>
<feGaussianBlur stdDeviation="5"/>
<feColorMatrix type="matrix" values="0 0 0 0 0.0166667 0 0 0 0 0.0166667 0 0 0 0 1 0 0 0 1 0"/>
<feBlend mode="normal" in2="BackgroundImageFix" result="effect1_dropShadow"/>
<feBlend mode="normal" in="SourceGraphic" in2="effect1_dropShadow" result="shape"/>
</filter>
<filter id="filter3_d" x="-6" y="763" width="332" height="92" filterUnits="userSpaceOnUse" color-interpolation-filters="sRGB">
<feFlood flood-opacity="0" result="BackgroundImageFix"/>
<feColorMatrix in="SourceAlpha" type="matrix" values="0 0 0 0 0 0 0 0 0 0 0 0 0 0 0 0 0 0 127 0"/>
<feOffset/>
<feGaussianBlur stdDeviation="5"/>
<feColorMatrix type="matrix" values="0 0 0 0 0.0166667 0 0 0 0 0.0166667 0 0 0 0 1 0 0 0 1 0"/>
<feBlend mode="normal" in2="BackgroundImageFix" result="effect1_dropShadow"/>
<feBlend mode="normal" in="SourceGraphic" in2="effect1_dropShadow" result="shape"/>
</filter>
<filter id="filter4_d" x="-6" y="839" width="332" height="92" filterUnits="userSpaceOnUse" color-interpolation-filters="sRGB">
<feFlood flood-opacity="0" result="BackgroundImageFix"/>
<feColorMatrix in="SourceAlpha" type="matrix" values="0 0 0 0 0 0 0 0 0 0 0 0 0 0 0 0 0 0 127 0"/>
<feOffset/>
<feGaussianBlur stdDeviation="5"/>
<feColorMatrix type="matrix" values="0 0 0 0 0.0166667 0 0 0 0 0.0166667 0 0 0 0 1 0 0 0 1 0"/>
<feBlend mode="normal" in2="BackgroundImageFix" result="effect1_dropShadow"/>
<feBlend mode="normal" in="SourceGraphic" in2="effect1_dropShadow" result="shape"/>
</filter>
<filter id="filter5_d" x="-6" y="915" width="332" height="92" filterUnits="userSpaceOnUse" color-interpolation-filters="sRGB">
<feFlood flood-opacity="0" result="BackgroundImageFix"/>
<feColorMatrix in="SourceAlpha" type="matrix" values="0 0 0 0 0 0 0 0 0 0 0 0 0 0 0 0 0 0 127 0"/>
<feOffset/>
<feGaussianBlur stdDeviation="5"/>
<feColorMatrix type="matrix" values="0 0 0 0 0.0166667 0 0 0 0 0.0166667 0 0 0 0 1 0 0 0 1 0"/>
<feBlend mode="normal" in2="BackgroundImageFix" result="effect1_dropShadow"/>
<feBlend mode="normal" in="SourceGraphic" in2="effect1_dropShadow" result="shape"/>
</filter>
<filter id="filter6_d" x="-6" y="617" width="332" height="162" filterUnits="userSpaceOnUse" color-interpolation-filters="sRGB">
<feFlood flood-opacity="0" result="BackgroundImageFix"/>
<feColorMatrix in="SourceAlpha" type="matrix" values="0 0 0 0 0 0 0 0 0 0 0 0 0 0 0 0 0 0 127 0"/>
<feOffset/>
<feGaussianBlur stdDeviation="5"/>
<feColorMatrix type="matrix" values="0 0 0 0 0.0166667 0 0 0 0 0.0166667 0 0 0 0 1 0 0 0 1 0"/>
<feBlend mode="normal" in2="BackgroundImageFix" result="effect1_dropShadow"/>
<feBlend mode="normal" in="SourceGraphic" in2="effect1_dropShadow" result="shape"/>
</filter>
</defs>
</svg>
